<svg width="24" height="24" viewBox="0 0 24 24" fill="none" xmlns="http://www.w3.org/2000/svg">
<mask id="mask0_3380_24855" style="mask-type:luminance" maskUnits="userSpaceOnUse" x="1" y="0" width="22" height="24">
<path d="M22.6596 0.00976562H1.34961V23.9798H22.6596V0.00976562Z" fill="white"/>
</mask>
<g mask="url(#mask0_3380_24855)">
<path d="M15.5495 3.46955C14.2395 2.17955 12.6395 1.53955 10.8895 1.53955C9.13953 1.53955 7.49953 2.21955 6.24953 3.46955C4.99953 4.69955 4.32953 6.35955 4.32953 8.12955C4.32953 9.89955 4.99953 11.5496 6.24953 12.7996L7.31953 13.8496C7.60953 14.1496 7.60953 14.6396 7.31953 14.9296L3.26953 18.9795C5.47953 20.5495 8.05953 21.3796 10.7895 21.3996V17.2296C10.7895 15.7696 11.8895 14.5696 13.2895 14.3496C13.4695 12.4496 15.0095 10.9296 16.9295 10.7396C17.2995 9.92955 17.4795 9.03955 17.4795 8.11955C17.4795 6.34955 16.7995 4.69955 15.5595 3.45955L15.5495 3.46955Z" fill="#EBF5FF"/>
<path d="M18.9804 8.12977C18.9804 9.08977 18.8104 10.0298 18.4904 10.9198C18.2504 10.8398 17.9904 10.7798 17.7304 10.7698C17.5804 10.7698 17.4404 10.7398 17.2904 10.7398C17.1704 10.7398 17.0504 10.7398 16.9104 10.7598C17.2804 9.94977 17.4604 9.05977 17.4604 8.13977C17.4604 6.36977 16.7804 4.71977 15.5404 3.47977C14.2304 2.18977 12.6304 1.54977 10.8804 1.54977C9.13043 1.54977 7.49043 2.22977 6.24043 3.47977C4.99043 4.70977 4.32043 6.36977 4.32043 8.13977C4.32043 9.90977 4.99043 11.5598 6.24043 12.8098L7.31043 13.8598C7.60043 14.1598 7.60043 14.6498 7.31043 14.9398L3.26043 18.9898C5.47043 20.5598 8.05043 21.3898 10.7804 21.4098V22.2498C10.7804 22.4898 10.8104 22.7198 10.8704 22.9298C7.52043 22.9298 4.25043 21.7698 1.63043 19.6698C1.46043 19.5298 1.36043 19.3398 1.34043 19.1098C1.32043 18.8998 1.42043 18.6798 1.57043 18.5298L5.69043 14.4098L5.16043 13.8798C3.64043 12.3598 2.80043 10.3198 2.80043 8.13977C2.80043 5.95977 3.64043 3.93977 5.16043 2.39977C6.70043 0.849766 8.73043 0.00976562 10.8904 0.00976562C13.0504 0.00976562 15.0304 0.829766 16.5504 2.30977C18.1504 3.91977 18.9904 5.94977 18.9904 8.11977L18.9804 8.12977Z" fill="#566AFD"/>
<path d="M20.8702 15.4596H20.1702V14.7296C20.1702 13.4196 19.2602 12.2896 18.0202 11.9796C17.7902 11.8996 17.5502 11.8696 17.2902 11.8696C17.2602 11.8696 17.2102 11.8696 17.1802 11.8896C16.8002 11.8896 16.4302 11.9796 16.1102 12.1196C15.4102 12.4396 14.8502 13.0196 14.5902 13.7296C14.4502 14.0496 14.3902 14.3796 14.3902 14.7296V15.4596H13.6902C12.7202 15.4596 11.9102 16.2496 11.9102 17.2296V22.2396C11.9102 22.4696 11.9602 22.6796 12.0302 22.8796C12.2902 23.5196 12.9402 23.9896 13.6902 23.9896H20.8602C21.8502 23.9896 22.6402 23.1996 22.6402 22.2396V17.2296C22.6402 16.2596 21.8502 15.4596 20.8602 15.4596H20.8702ZM17.8902 19.7396C17.8002 19.7996 17.7702 19.8596 17.7802 19.9696V21.5096C17.7602 21.8796 17.4902 22.0996 17.1702 22.0096C16.9402 21.9596 16.8002 21.7796 16.8002 21.5196C16.7802 21.2496 16.7802 20.9896 16.7802 20.7296C16.7802 20.4896 16.7802 20.2396 16.8002 19.9996C16.8002 19.8796 16.7702 19.7996 16.6602 19.7296C16.2802 19.4396 16.1702 18.9196 16.3702 18.4996C16.5802 18.0696 17.0702 17.8496 17.5302 17.9696C17.9902 18.0896 18.3102 18.5196 18.2802 18.9896C18.2602 19.3096 18.1402 19.5696 17.8802 19.7496L17.8902 19.7396ZM19.0002 15.4596H15.5902V14.7296C15.5902 13.7996 16.3502 13.0396 17.2902 13.0396H17.3202C18.2302 13.0596 18.9902 13.8196 18.9902 14.7296V15.4596H19.0002Z" fill="#566AFD"/>
</g>
</svg>
